# xmcd
#
# Track frame offsets:
#	150
#	10653
#	26362
#	39023
#	59617
#	70828
#	90272
#
# Disc length: 1368 seconds
# Revision: 0
# Processed by: cddbd v1.5.2PL0 Copyright (c) Steve Scherf et al.
# Submitted via: dBpowerAMP V12.0
#
DISCID=44055607
DTITLE=Bob Woods - Solo Run
DYEAR=2018
DGENRE=Americana
TTITLE0=I Know I Had It
TTITLE1=Railroad Money
TTITLE2=Grab My Heart
TTITLE3=Last Train Through Moraga
TTITLE4=Time Don't Have No Mercy
TTITLE5=Broken Rail
TTITLE6=Who's Guarding the Water
EXTD=
EXTT0=
EXTT1=
EXTT2=
EXTT3=
EXTT4=
EXTT5=
EXTT6=
PLAYORDER=
